<svg width="300" height="300" viewBox="0 0 300 300" fill="none" xmlns="http://www.w3.org/2000/svg">
<path d="M278.967 96.1223H19.5917C17.5205 96.1202 15.5348 95.414 14.0702 94.1587C12.6055 92.9033 11.7816 91.2012 11.7792 89.4258V14.4258C11.7816 12.6504 12.6055 10.9484 14.0702 9.69301C15.5348 8.43764 17.5205 7.73143 19.5917 7.72937H278.967C281.038 7.7314 283.024 8.43759 284.488 9.69297C285.953 10.9484 286.777 12.6504 286.779 14.4258V89.4258C286.777 91.2012 285.953 92.9033 284.488 94.1587C283.024 95.4141 281.038 96.1202 278.967 96.1223Z" fill="#3F3D56"/>
<path d="M121.154 27.8186H52.4042V34.515H121.154V27.8186Z" fill="white"/>
<path d="M211.779 35.8543C214.368 35.8543 216.467 34.0555 216.467 31.8365C216.467 29.6175 214.368 27.8186 211.779 27.8186C209.19 27.8186 207.092 29.6175 207.092 31.8365C207.092 34.0555 209.19 35.8543 211.779 35.8543Z" fill="#6C63FF"/>
<path d="M227.404 35.8543C229.993 35.8543 232.092 34.0555 232.092 31.8365C232.092 29.6175 229.993 27.8186 227.404 27.8186C224.815 27.8186 222.717 29.6175 222.717 31.8365C222.717 34.0555 224.815 35.8543 227.404 35.8543Z" fill="#6C63FF"/>
<path d="M243.029 35.8543C245.618 35.8543 247.717 34.0555 247.717 31.8365C247.717 29.6175 245.618 27.8186 243.029 27.8186C240.44 27.8186 238.342 29.6175 238.342 31.8365C238.342 34.0555 240.44 35.8543 243.029 35.8543Z" fill="#6C63FF"/>
<path d="M278.967 191.211H19.5917C17.5205 191.209 15.5348 190.503 14.0702 189.248C12.6055 187.992 11.7816 186.29 11.7792 184.515V109.515C11.7816 107.74 12.6055 106.038 14.0702 104.782C15.5348 103.527 17.5205 102.821 19.5917 102.818H278.967C281.038 102.821 283.024 103.527 284.488 104.782C285.953 106.037 286.777 107.74 286.779 109.515V184.515C286.777 186.29 285.953 187.992 284.488 189.248C283.024 190.503 281.038 191.209 278.967 191.211Z" fill="#3F3D56"/>
<path d="M121.154 122.908H52.4042V129.604H121.154V122.908Z" fill="white"/>
<path d="M211.779 130.944C214.368 130.944 216.467 129.145 216.467 126.926C216.467 124.707 214.368 122.908 211.779 122.908C209.19 122.908 207.092 124.707 207.092 126.926C207.092 129.145 209.19 130.944 211.779 130.944Z" fill="#6C63FF"/>
<path d="M227.404 130.944C229.993 130.944 232.092 129.145 232.092 126.926C232.092 124.707 229.993 122.908 227.404 122.908C224.815 122.908 222.717 124.707 222.717 126.926C222.717 129.145 224.815 130.944 227.404 130.944Z" fill="#6C63FF"/>
<path d="M243.029 130.944C245.618 130.944 247.717 129.145 247.717 126.926C247.717 124.707 245.618 122.908 243.029 122.908C240.44 122.908 238.342 124.707 238.342 126.926C238.342 129.145 240.44 130.944 243.029 130.944Z" fill="#6C63FF"/>
<path d="M278.967 286.301H19.5917C17.5205 286.299 15.5348 285.593 14.0702 284.337C12.6055 283.082 11.7816 281.38 11.7792 279.604V204.604C11.7816 202.829 12.6055 201.127 14.0702 199.872C15.5348 198.616 17.5205 197.91 19.5917 197.908H278.967C281.038 197.91 283.024 198.616 284.488 199.872C285.953 201.127 286.777 202.829 286.779 204.604V279.604C286.777 281.38 285.953 283.082 284.488 284.337C283.024 285.593 281.038 286.299 278.967 286.301Z" fill="#3F3D56"/>
<path d="M121.154 217.997H52.4042V224.694H121.154V217.997Z" fill="white"/>
<path d="M211.779 226.033C214.368 226.033 216.467 224.234 216.467 222.015C216.467 219.796 214.368 217.997 211.779 217.997C209.19 217.997 207.092 219.796 207.092 222.015C207.092 224.234 209.19 226.033 211.779 226.033Z" fill="#6C63FF"/>
<path d="M227.404 226.033C229.993 226.033 232.092 224.234 232.092 222.015C232.092 219.796 229.993 217.997 227.404 217.997C224.815 217.997 222.717 219.796 222.717 222.015C222.717 224.234 224.815 226.033 227.404 226.033Z" fill="#6C63FF"/>
<path d="M243.029 226.033C245.618 226.033 247.717 224.234 247.717 222.015C247.717 219.796 245.618 217.997 243.029 217.997C240.44 217.997 238.342 219.796 238.342 222.015C238.342 224.234 240.44 226.033 243.029 226.033Z" fill="#6C63FF"/>
</svg>
